<?xml version="1.0" encoding="UTF-8"?>
<svg version="1.1" xmlns="http://www.w3.org/2000/svg" width="256" height="256">
<path d="M0 0 C84.48 0 168.96 0 256 0 C256 84.48 256 168.96 256 256 C171.52 256 87.04 256 0 256 C0 171.52 0 87.04 0 0 Z " fill="#FBC14E" transform="translate(0,0)"/>
<path d="M0 0 C0.99 0.33 1.98 0.66 3 1 C3.14695313 1.94617188 3.29390625 2.89234375 3.4453125 3.8671875 C7.04842362 25.67299256 15.01146234 45.71134958 29 63 C29.44214844 63.5475293 29.88429688 64.09505859 30.33984375 64.65917969 C51.77961076 90.99406965 81.48572783 108.97981648 115.62109375 112.78466797 C146.31752658 115.56322439 178.06078141 107.07710644 202.5 87.9375 C204.01423039 86.64144345 205.51448398 85.3288711 207 84 C207.82628906 83.29230469 208.65257812 82.58460938 209.50390625 81.85546875 C233.31345975 61.09935417 248.75015797 31.85859504 255 1 C255.33 1 255.66 1 256 1 C256 38.62 256 76.24 256 115 C171.52 115 87.04 115 0 115 C0 77.05 0 39.1 0 0 Z " fill="#0F0E11" transform="translate(0,141)"/>
<path d="M0 0 C10.21472995 -0.38949155 19.54426959 1.98090236 29.17578125 5.19140625 C34.91876822 5.46929272 39.4868927 5.60213392 43.98828125 1.56640625 C44.38015625 1.11265625 44.77203125 0.65890625 45.17578125 0.19140625 C46.16578125 0.52140625 47.15578125 0.85140625 48.17578125 1.19140625 C47.87285156 1.91199219 47.56992188 2.63257813 47.2578125 3.375 C42.6137648 15.2780515 40.47125701 27.65855146 38.17578125 40.19140625 C36.52578125 40.19140625 34.87578125 40.19140625 33.17578125 40.19140625 C33.2221875 39.34578125 33.26859375 38.50015625 33.31640625 37.62890625 C33.60229876 28.6437132 32.58486939 23.50290007 27.05078125 16.50390625 C17.20014143 8.58056553 7.42585812 7.48219127 -4.82421875 8.19140625 C-11.49515431 9.47117787 -15.55430448 13.00912934 -19.4375 18.453125 C-22.36070207 24.2254198 -21.63184101 31.57851071 -19.76171875 37.62890625 C-12.93275391 46.66076298 -2.39403161 51.03797478 7.609375 55.7421875 C8.25959625 56.04881317 8.9098175 56.35543884 9.57974243 56.6713562 C12.25966945 57.93313691 14.93992424 59.19359634 17.63012695 60.43334961 C31.47083483 66.82796862 45.418147 74.41876632 52.05078125 88.94140625 C55.51583665 98.9515663 54.98407787 109.30005865 51.17578125 119.19140625 C43.21614179 133.35433279 29.4278528 141.51855972 14.17578125 146.19140625 C-8.40650914 151.9824699 -29.09312817 148.13658647 -49.32421875 137.546875 C-53.66543143 135.86562411 -56.1972808 135.72589115 -60.82421875 136.19140625 C-63.37831545 137.39357339 -63.37831545 137.39357339 -65.32421875 139.19140625 C-67.07421875 140.69140625 -67.07421875 140.69140625 -68.82421875 142.19140625 C-68.0648104 131.91166549 -67.17609337 121.64577842 -66.26171875 111.37890625 C-66.12167574 109.80013633 -65.98170137 108.22136032 -65.84179688 106.64257812 C-65.50339295 102.82545038 -65.16406884 99.0084055 -64.82421875 95.19140625 C-62.84421875 95.19140625 -60.86421875 95.19140625 -58.82421875 95.19140625 C-58.78683594 96.15820312 -58.74945313 97.125 -58.7109375 98.12109375 C-58.14229429 109.38245933 -57.47912805 118.58807214 -49.3125 127.0234375 C-35.13100156 139.37937414 -19.65494996 142.63021774 -1.36328125 141.47070312 C6.7551854 140.57767179 14.65085548 137.28299108 20.17578125 131.19140625 C24.48917644 124.06310057 26.14974685 117.53313518 25.17578125 109.19140625 C19.94115959 94.68767405 2.54583011 88.30711138 -10.1640625 82.0546875 C-24.18620424 75.15265603 -37.05227273 68.62301399 -42.82421875 53.19140625 C-45.4357894 40.65251898 -44.0425323 30.26764318 -37.0625 19.46484375 C-29.54496153 9.3702992 -19.36308635 2.87118348 -7.01171875 0.44140625 C-4.67597212 0.25958166 -2.33778358 0.158439 0 0 Z " fill="#050407" transform="translate(133.82421875,48.80859375)"/>
<path d="M0 0 C37.95 0 75.9 0 115 0 C111.64643863 3.35356137 109.18037147 3.91892552 104.75 4.875 C83.93811163 9.79874808 65.26078255 17.90150092 49 32 C48.45118164 32.47195801 47.90236328 32.94391602 47.33691406 33.43017578 C24.26905996 53.46417744 9.70287739 79.5216314 3.84375 109.41015625 C3.5653125 110.26480469 3.286875 111.11945313 3 112 C1.515 112.495 1.515 112.495 0 113 C0 75.71 0 38.42 0 0 Z " fill="#151518" transform="translate(0,0)"/>
<path d="M0 0 C0.33 0 0.66 0 1 0 C1 37.62 1 75.24 1 114 C-32.66 114 -66.32 114 -101 114 C-100 112 -100 112 -98.00390625 111.1484375 C-97.19824219 110.89320313 -96.39257812 110.63796875 -95.5625 110.375 C-94.75941406 110.11460937 -93.95632812 109.85421875 -93.12890625 109.5859375 C-91 109 -91 109 -89 109 C-89 108.01 -89 107.02 -89 106 C-87.94683594 105.59910156 -86.89367187 105.19820313 -85.80859375 104.78515625 C-71.98622671 99.39043223 -59.34060005 92.69947425 -48 83 C-46.78763672 81.96939453 -46.78763672 81.96939453 -45.55078125 80.91796875 C-21.73305238 60.09113386 -6.26337302 30.9254043 0 0 Z " fill="#1A1A1A" transform="translate(255,142)"/>
<path d="M0 0 C20.46 0 40.92 0 62 0 C62 21.12 62 42.24 62 64 C60.49719323 60.99438646 59.20625437 58.0493455 57.99609375 54.92407227 C51.49577102 36.85087646 51.49577102 36.85087646 39 23 C39 22.34 39 21.68 39 21 C38.42765625 20.73574219 37.8553125 20.47148437 37.265625 20.19921875 C34.87621766 18.93448073 32.89727371 17.45298708 30.75 15.8125 C24.55645228 11.4081994 17.82132246 8.6472246 10.83544922 5.76367188 C8.37134755 4.73843777 5.93492885 3.65494833 3.5 2.5625 C1.7675 1.7890625 1.7675 1.7890625 0 1 C0 0.67 0 0.34 0 0 Z " fill="#1D1D1E" transform="translate(194,0)"/>
<path d="M0 0 C0.99 0.33 1.98 0.66 3 1 C3.14695313 1.94617188 3.29390625 2.89234375 3.4453125 3.8671875 C4.72849438 11.61185897 6.45323459 19.04720377 8.9375 26.5 C9.17807129 27.22815918 9.41864258 27.95631836 9.66650391 28.70654297 C11.1786935 33.09861585 13.00081906 37.16775002 15.20825195 41.25585938 C16.255827 43.56356093 16.31183726 45.50530188 16 48 C14.02 48.495 14.02 48.495 12 49 C10.3372974 46.32521756 9.00016187 44.0004856 8 41 C7.34 40.67 6.68 40.34 6 40 C6.33 40.99 6.66 41.98 7 43 C7.09214326 44.60323962 7.12790915 46.21003334 7.12939453 47.81591797 C7.13254669 48.79478973 7.13569885 49.7736615 7.13894653 50.78219604 C7.1369223 51.84149323 7.13489807 52.90079041 7.1328125 53.9921875 C7.13376923 55.08910919 7.13472595 56.18603088 7.13571167 57.31619263 C7.13639304 59.64471494 7.13454177 61.97323914 7.13037109 64.30175781 C7.12507333 67.82621677 7.13029087 71.35054529 7.13671875 74.875 C7.13605696 77.14322944 7.13477372 79.41145881 7.1328125 81.6796875 C7.13483673 82.71874237 7.13686096 83.75779724 7.13894653 84.82833862 C7.10713054 95.02663614 6.89227934 105.16625023 4 115 C2.68 115 1.36 115 0 115 C0 77.05 0 39.1 0 0 Z " fill="#040405" transform="translate(0,141)"/>
<path d="M0 0 C1.98 0 3.96 0 6 0 C6.03738281 0.96679688 6.07476562 1.93359375 6.11328125 2.9296875 C6.68192446 14.19105308 7.3450907 23.39666589 15.51171875 31.83203125 C29.74728061 44.2350718 44.86792462 46.61706282 63 47 C63 47.33 63 47.66 63 48 C56.565 48.495 56.565 48.495 50 49 C50.495 50.98 50.495 50.98 51 53 C45.32689791 53.20732267 40.90891608 52.68274144 35.4375 50.9375 C34.75494141 50.7206958 34.07238281 50.5038916 33.36914062 50.28051758 C27.11506502 48.21140816 21.32837107 45.40625673 15.5 42.35546875 C11.15878732 40.67421786 8.62693795 40.5344849 4 41 C1.4459033 42.20216714 1.4459033 42.20216714 -0.5 44 C-2.25 45.5 -2.25 45.5 -4 47 C-3.24059165 36.72025924 -2.35187462 26.45437217 -1.4375 16.1875 C-1.29745699 14.60873008 -1.15748262 13.02995407 -1.01757812 11.45117188 C-0.6791742 7.63404413 -0.33985009 3.81699925 0 0 Z " fill="#0D0805" transform="translate(69,144)"/>
<path d="M0 0 C5.74298697 0.27788647 10.31111145 0.41072767 14.8125 -3.625 C15.204375 -4.07875 15.59625 -4.5325 16 -5 C16.99 -4.67 17.98 -4.34 19 -4 C18.69707031 -3.27941406 18.39414063 -2.55882812 18.08203125 -1.81640625 C13.43798355 10.08664525 11.29547576 22.46714521 9 35 C7.35 35 5.7 35 4 35 C4.04640625 34.154375 4.0928125 33.30875 4.140625 32.4375 C4.42651751 23.45230695 3.40908814 18.31149382 -2.125 11.3125 C-11.97527684 3.38945124 -21.7500909 2.29004742 -34 3 C-39.77020352 4.12222948 -43.77020173 7.0874366 -48 11 C-48.6875 9.1875 -48.6875 9.1875 -49 7 C-47.875 5.25 -47.875 5.25 -46 4 C-43.3125 3.8125 -43.3125 3.8125 -41 4 C-41 2.68 -41 1.36 -41 0 C-38.03 0.495 -38.03 0.495 -35 1 C-35 0.34 -35 -0.32 -35 -1 C-39.65052872 -1.26932521 -39.65052872 -1.26932521 -44 0 C-44.66 -0.66 -45.32 -1.32 -46 -2 C-30.68473153 -7.74322568 -15.05740102 -5.01913367 0 0 Z " fill="#080505" transform="translate(163,54)"/>
<path d="M0 0 C0.33 0 0.66 0 1 0 C1.08735463 4.54154478 1.14051247 9.08287232 1.1875 13.625 C1.21263672 14.91019531 1.23777344 16.19539063 1.26367188 17.51953125 C1.27333984 18.76347656 1.28300781 20.00742188 1.29296875 21.2890625 C1.3086792 22.43068848 1.32438965 23.57231445 1.34057617 24.74853516 C0.95723398 28.4082852 -0.1794943 30.82933839 -2 34 C-2.66 34 -3.32 34 -4 34 C-4.0928125 35.36125 -4.0928125 35.36125 -4.1875 36.75 C-5.1299676 43.51359101 -8.23753451 50.35630176 -12 56 C-12.66 56 -13.32 56 -14 56 C-14.2475 56.721875 -14.495 57.44375 -14.75 58.1875 C-16.13855708 61.31175343 -17.65354583 63.51551912 -20 66 C-22.25 66.8125 -22.25 66.8125 -24 67 C-24 67.66 -24 68.32 -24 69 C-25.485 69.99 -25.485 69.99 -27 71 C-27.474375 71.94875 -27.94875 72.8975 -28.4375 73.875 C-29.97537124 76.95074249 -31.38163211 78.80394951 -34 81 C-34.66 81 -35.32 81 -36 81 C-36.33 81.99 -36.66 82.98 -37 84 C-38.671875 85.02734375 -38.671875 85.02734375 -40.75 85.9375 C-44.2525517 87.56908434 -47.07513084 89.44073949 -50 92 C-50 91.34 -50 90.68 -50 90 C-51.98 90.99 -53.96 91.98 -56 93 C-54.61804948 88.2228871 -51.91514982 85.94698 -48.125 83 C-36.19831642 73.26976825 -26.93943099 62.16274085 -19 49 C-18.64454102 48.41557129 -18.28908203 47.83114258 -17.92285156 47.22900391 C-9.34141825 32.86618243 -3.31847373 16.38496404 0 0 Z " fill="#0A0606" transform="translate(255,142)"/>
<path d="M0 0 C10.89 0 21.78 0 33 0 C29.64643863 3.35356137 27.18037147 3.91892552 22.75 4.875 C-6.84589374 11.87689826 -32.88805125 26.97355014 -52 51 C-52.59375 49.09375 -52.59375 49.09375 -53 47 C-52 46 -51 45 -50 44 C-50.22757731 41.83700789 -50.22757731 41.83700789 -51 40 C-50.34 40 -49.68 40 -49 40 C-49 39.34 -49 38.68 -49 38 C-48.01 38 -47.02 38 -46 38 C-45.9175 37.401875 -45.835 36.80375 -45.75 36.1875 C-44.78423221 33.37067727 -43.51131433 32.52200868 -41 31 C-40.34 31 -39.68 31 -39 31 C-39 30.34 -39 29.68 -39 29 C-38.34 29 -37.68 29 -37 29 C-37 28.34 -37 27.68 -37 27 C-36.34 27 -35.68 27 -35 27 C-35 26.34 -35 25.68 -35 25 C-33.30729167 24.08854167 -31.61458333 23.17708333 -29.921875 22.265625 C-27.88723016 21.02378529 -27.88723016 21.02378529 -26.08984375 19.04296875 C-23.80775259 16.81206468 -21.63726524 15.53398665 -18.8125 14.0625 C-15.28558341 12.21484476 -11.84600605 10.30602055 -8.4375 8.25 C-3.83899724 5.65917689 0.81034946 4.72590101 6 4 C6 3.34 6 2.68 6 2 C4.35 2 2.7 2 1 2 C0.505 1.01 0.505 1.01 0 0 Z M-53 42 C-52.34 42.33 -51.68 42.66 -51 43 C-51.99 43 -52.98 43 -54 43 C-53.67 42.67 -53.34 42.34 -53 42 Z " fill="#060404" transform="translate(82,0)"/>
<path d="M0 0 C2.79173055 -0.02690104 5.58320348 -0.04679053 8.375 -0.0625 C9.56609375 -0.07506836 9.56609375 -0.07506836 10.78125 -0.08789062 C16.7734375 -0.11328125 16.7734375 -0.11328125 19 1 C19 1.66 19 2.32 19 3 C19.70511719 3.27457031 20.41023438 3.54914063 21.13671875 3.83203125 C29.02142256 7.04830197 36.13717722 10.50198835 42.28125 16.484375 C44.08610926 18.07593271 45.84453831 18.95804445 48 20 C49.8208932 22.03099626 50.91018306 23.76981979 51.90234375 26.3125 C53.04333293 29.10609628 54.3960644 31.5949073 55.9375 34.1875 C56.44152344 35.04730469 56.94554687 35.90710937 57.46484375 36.79296875 C58.97032238 39.24477437 58.97032238 39.24477437 62 41 C62.34057617 43.33837891 62.34057617 43.33837891 62.29296875 46.2265625 C62.2784668 47.7734375 62.2784668 47.7734375 62.26367188 49.3515625 C62.23853516 50.43179688 62.21339844 51.51203125 62.1875 52.625 C62.16719727 54.25695313 62.16719727 54.25695313 62.14648438 55.921875 C62.11104754 58.61507409 62.06164331 61.30729374 62 64 C60.48216867 61.03208327 59.20028883 58.03393933 57.99609375 54.92407227 C51.49577102 36.85087646 51.49577102 36.85087646 39 23 C39 22.34 39 21.68 39 21 C38.42765625 20.73574219 37.8553125 20.47148437 37.265625 20.19921875 C34.87621766 18.93448073 32.89727371 17.45298708 30.75 15.8125 C24.55645228 11.4081994 17.82132246 8.6472246 10.83544922 5.76367188 C8.37134755 4.73843777 5.93492885 3.65494833 3.5 2.5625 C1.7675 1.7890625 1.7675 1.7890625 0 1 C0 0.67 0 0.34 0 0 Z " fill="#0A0504" transform="translate(194,0)"/>
<path d="M0 0 C0.33 0.66 0.66 1.32 1 2 C1.66 2 2.32 2 3 2 C2.1220655 8.97806557 0.02734956 14.20907411 -3.48046875 20.27734375 C-9.19385478 30.51443904 -11.91925606 41.99882408 -14.15625 53.41015625 C-14.4346875 54.26480469 -14.713125 55.11945313 -15 56 C-16.485 56.495 -16.485 56.495 -18 57 C-18 45.45 -18 33.9 -18 22 C-17.01 22 -16.02 22 -15 22 C-14.34 20.68 -13.68 19.36 -13 18 C-12.01 18 -11.02 18 -10 18 C-9.731875 16.865625 -9.46375 15.73125 -9.1875 14.5625 C-8.5996875 12.7990625 -8.5996875 12.7990625 -8 11 C-7.01 10.67 -6.02 10.34 -5 10 C-3.53706037 7.68130796 -3.53706037 7.68130796 -2.3125 4.9375 C-1.87550781 4.01839844 -1.43851563 3.09929688 -0.98828125 2.15234375 C-0.66214844 1.44207031 -0.33601563 0.73179688 0 0 Z " fill="#080505" transform="translate(18,56)"/>
<path d="M0 0 C2.79173055 -0.02690104 5.58320348 -0.04679053 8.375 -0.0625 C9.56609375 -0.07506836 9.56609375 -0.07506836 10.78125 -0.08789062 C16.7734375 -0.11328125 16.7734375 -0.11328125 19 1 C19 1.66 19 2.32 19 3 C19.70382813 3.27328125 20.40765625 3.5465625 21.1328125 3.828125 C38.96086032 11.11479305 38.96086032 11.11479305 43 17 C43.56405611 19.90989692 43.36127302 22.00659495 43 25 C41.68 24.34 40.36 23.68 39 23 C39 22.34 39 21.68 39 21 C38.42765625 20.73574219 37.8553125 20.47148437 37.265625 20.19921875 C34.87621766 18.93448073 32.89727371 17.45298708 30.75 15.8125 C24.55645228 11.4081994 17.82132246 8.6472246 10.83544922 5.76367188 C8.37134755 4.73843777 5.93492885 3.65494833 3.5 2.5625 C1.7675 1.7890625 1.7675 1.7890625 0 1 C0 0.67 0 0.34 0 0 Z " fill="#0E0803" transform="translate(194,0)"/>
<path d="M0 0 C0 0.33 0 0.66 0 1 C-0.804375 1.12375 -1.60875 1.2475 -2.4375 1.375 C-3.283125 1.58125 -4.12875 1.7875 -5 2 C-5.33 2.66 -5.66 3.32 -6 4 C-3.525 4.495 -3.525 4.495 -1 5 C-0.505 6.485 -0.505 6.485 0 8 C-0.83789062 7.84015625 -1.67578125 7.6803125 -2.5390625 7.515625 C-12.13534127 6.0859311 -22.62802984 5.37584887 -30.80859375 11.3125 C-32.25253514 12.48632764 -33.6339362 13.73639098 -35 15 C-35.6875 13.1875 -35.6875 13.1875 -36 11 C-34.875 9.25 -34.875 9.25 -33 8 C-30.3125 7.8125 -30.3125 7.8125 -28 8 C-28 6.68 -28 5.36 -28 4 C-25.03 4.495 -25.03 4.495 -22 5 C-22 4.34 -22 3.68 -22 3 C-26.65052872 2.73067479 -26.65052872 2.73067479 -31 4 C-31.66 3.34 -32.32 2.68 -33 2 C-22.61349728 -1.89493852 -10.82912775 -2.0487539 0 0 Z " fill="#1C1307" transform="translate(150,50)"/>
<path d="M0 0 C0.33 0 0.66 0 1 0 C1.08636719 0.89460938 1.17273438 1.78921875 1.26171875 2.7109375 C2.53949901 13.7068814 5.13515702 22.31317517 13.3984375 30.00390625 C24.02872074 38.16017462 36.87144915 43.49111614 49 49 C45.46834174 50.02473942 44.02100998 49.88418962 40.6875 48.25 C39.90890625 47.87875 39.1303125 47.5075 38.328125 47.125 C37.55984375 46.75375 36.7915625 46.3825 36 46 C34.64938502 45.40848979 33.29558573 44.82415006 31.9375 44.25 C30.4834375 43.63125 30.4834375 43.63125 29 43 C29 42.34 29 41.68 29 41 C25.37 40.34 21.74 39.68 18 39 C18 37.68 18 36.36 18 35 C17.01 35 16.02 35 15 35 C15 34.34 15 33.68 15 33 C14.43539062 32.773125 13.87078125 32.54625 13.2890625 32.3125 C10.36466954 30.63571496 8.58288772 28.54017852 6.375 26 C5.59898438 25.113125 4.82296875 24.22625 4.0234375 23.3125 C3.35570313 22.549375 2.68796875 21.78625 2 21 C1.34 20.34 0.68 19.68 0 19 C-0.33 19 -0.66 19 -1 19 C-0.67 12.73 -0.34 6.46 0 0 Z " fill="#E5C261" transform="translate(89,88)"/>
<path d="M0 0 C4.10899888 2.88740462 6.34941774 5.22199872 8 10 C9.17610062 19.23669267 6.8656549 25.61723368 1.875 33.25 C-4.07004824 38.93656788 -12.63371058 42.85915195 -20.875 43.125 C-21.90625 43.08375 -22.9375 43.0425 -24 43 C-24 42.34 -24 41.68 -24 41 C-21.36 41 -18.72 41 -16 41 C-16 40.34 -16 39.68 -16 39 C-15.21625 38.690625 -14.4325 38.38125 -13.625 38.0625 C-11.07669872 37.07124962 -11.07669872 37.07124962 -9 36 C-6.875 36.4375 -6.875 36.4375 -5 37 C-5 36.34 -5 35.68 -5 35 C-3.5390625 33.703125 -3.5390625 33.703125 -1.625 32.25 C1.7219687 29.50480951 3.07385874 27.32199256 4 23 C4.66 23 5.32 23 6 23 C5.77002126 20.62153567 5.51678509 18.24938734 5.25 15.875 C5.188125 15.20984375 5.12625 14.5446875 5.0625 13.859375 C4.48289755 8.93275416 2.89352167 5.96388944 0 2 C0 1.34 0 0.68 0 0 Z " fill="#D9B562" transform="translate(152,148)"/>
<path d="M0 0 C0.66 0.99 1.32 1.98 2 3 C-0.7070982 2.37712785 -3.18526004 1.5598099 -5.75 0.5 C-14.52610709 -2.78903465 -23.77461533 -2.10810998 -33 -2 C-32.97292969 -1.22269531 -32.94585937 -0.44539063 -32.91796875 0.35546875 C-33.01775657 3.57243796 -33.74647651 4.74647651 -36 7 C-36.99 7 -37.98 7 -39 7 C-39.66 5.35 -40.32 3.7 -41 2 C-39.58833114 1.01364163 -38.17043816 0.03618745 -36.75 -0.9375 C-35.96109375 -1.48277344 -35.1721875 -2.02804688 -34.359375 -2.58984375 C-24.34302447 -8.57643736 -9.5545586 -5.27506734 0 0 Z " fill="#EBC263" transform="translate(157,61)"/>
<path d="M0 0 C2.79173055 -0.02690104 5.58320348 -0.04679053 8.375 -0.0625 C9.56609375 -0.07506836 9.56609375 -0.07506836 10.78125 -0.08789062 C16.7734375 -0.11328125 16.7734375 -0.11328125 19 1 C19 1.66 19 2.32 19 3 C19.70511719 3.27585938 20.41023438 3.55171875 21.13671875 3.8359375 C24.0659984 5.02683155 26.93753586 6.30875136 29.8125 7.625 C30.78832031 8.07101562 31.76414063 8.51703125 32.76953125 8.9765625 C33.50558594 9.31429688 34.24164063 9.65203125 35 10 C33 12 33 12 30.5 12.3125 C29.2625 12.1578125 29.2625 12.1578125 28 12 C27.34 11.01 26.68 10.02 26 9 C23.43717258 8.27034634 23.43717258 8.27034634 21 8 C21 7.34 21 6.68 21 6 C19.14375 6.1546875 19.14375 6.1546875 17.25 6.3125 C10.90284963 6.36311523 5.63862874 3.67143155 0 1 C0 0.67 0 0.34 0 0 Z " fill="#060506" transform="translate(194,0)"/>
<path d="M0 0 C0.66 0.33 1.32 0.66 2 1 C1 3 1 3 0 4 C0.99 4.33 1.98 4.66 3 5 C1.71372289 6.17260611 0.42080217 7.3379283 -0.875 8.5 C-1.59429687 9.1496875 -2.31359375 9.799375 -3.0546875 10.46875 C-5 12 -5 12 -7 12 C-7.33 13.32 -7.66 14.64 -8 16 C-8.33 15.01 -8.66 14.02 -9 13 C-11.31 12.67 -13.62 12.34 -16 12 C-16.66 13.32 -17.32 14.64 -18 16 C-18.99 16 -19.98 16 -21 16 C-19.68333632 12.05000896 -17.19625199 10.76933327 -13.875 8.5625 C-13.28549561 8.16434082 -12.69599121 7.76618164 -12.08862305 7.35595703 C-4.11974701 2.01409854 -4.11974701 2.01409854 0 0 Z " fill="#EABD51" transform="translate(71,16)"/>
<path d="M0 0 C-2.54018673 3.53811723 -3.81841206 5.02429615 -8 6 C-9.28436734 7.9837767 -9.28436734 7.9837767 -10 10 C-11.98 10 -13.96 10 -16 10 C-16.33 10.66 -16.66 11.32 -17 12 C-19.97 11.505 -19.97 11.505 -23 11 C-19.87228293 7.52731414 -16.61988517 5.49055856 -12.5 3.3125 C-10.81390625 2.40951172 -10.81390625 2.40951172 -9.09375 1.48828125 C-2.94208494 -1.47104247 -2.94208494 -1.47104247 0 0 Z M-26 11 C-25.01 11 -24.02 11 -23 11 C-23.33 12.65 -23.66 14.3 -24 16 C-25.65 15.67 -27.3 15.34 -29 15 C-27.6875 13 -27.6875 13 -26 11 Z " fill="#070506" transform="translate(84,6)"/>
<path d="M0 0 C1.10057396 2.9348639 0.91557437 4.56283756 0.4375 7.75 C-0.22266147 12.32826263 0.49269396 15.62881249 2 20 C4.31856917 21.54571278 6.50638429 22.79618552 9 24 C9 25.32 9 26.64 9 28 C12.3 28.99 15.6 29.98 19 31 C19 31.66 19 32.32 19 33 C20.65 33 22.3 33 24 33 C24 34.32 24 35.64 24 37 C13.85891121 35.15616568 4.95299885 28.2054849 -1 20 C-2.11083501 16.66749498 -2.16759585 14.06961042 -2.1875 10.5625 C-2.20167969 9.42941406 -2.21585937 8.29632813 -2.23046875 7.12890625 C-2.01071135 4.14542021 -1.55843386 2.50704577 0 0 Z " fill="#E5C267" transform="translate(114,66)"/>
<path d="M0 0 C1.24546405 2.49092811 0.7767578 3.41080733 0 6 C0.99 6.33 1.98 6.66 3 7 C1.91768522 9.52540116 0.93144376 11.06647878 -1.0625 13 C-3.07607222 15.07852616 -3.59824094 16.18768658 -4 19 C-6.31 19.33 -8.62 19.66 -11 20 C-9.60244576 16.31553882 -7.95204714 12.89445774 -6.0625 9.4375 C-5.30646484 8.04337891 -5.30646484 8.04337891 -4.53515625 6.62109375 C-3.15712111 4.26826531 -1.68592319 2.13885778 0 0 Z " fill="#E9BD54" transform="translate(25,57)"/>
<path d="M0 0 C1.22589844 0.01353516 1.22589844 0.01353516 2.4765625 0.02734375 C3.41628906 0.04474609 3.41628906 0.04474609 4.375 0.0625 C5.375 3.0625 5.375 3.0625 4.875 6.6875 C3.92507204 13.80545335 4.30854437 18.93720273 8.5 24.9375 C9.05945313 25.65679687 9.61890625 26.37609375 10.1953125 27.1171875 C10.77925781 28.08011719 10.77925781 28.08011719 11.375 29.0625 C11.045 30.0525 10.715 31.0425 10.375 32.0625 C3.48657764 24.98790406 2.12903162 17.658155 2.1875 7.9375 C2.23515593 5.6454766 2.29252275 3.35353467 2.375 1.0625 C0.395 1.0625 -1.585 1.0625 -3.625 1.0625 C-3.61339844 1.93132812 -3.60179688 2.80015625 -3.58984375 3.6953125 C-3.58082031 4.84773437 -3.57179688 6.00015625 -3.5625 7.1875 C-3.55089844 8.32445312 -3.53929688 9.46140625 -3.52734375 10.6328125 C-3.619673 13.8754156 -4.01110094 16.88182612 -4.625 20.0625 C-4.955 20.0625 -5.285 20.0625 -5.625 20.0625 C-5.955 13.7925 -6.285 7.5225 -6.625 1.0625 C-4.21954362 -0.14022819 -2.67503047 -0.03821472 0 0 Z " fill="#EBC766" transform="translate(72.625,142.9375)"/>
<path d="M0 0 C2.97 0 5.94 0 9 0 C2.49319869 6.50680131 -13.96621767 6.22514075 -22.69018555 6.32568359 C-28.89471057 6.29590981 -34.8915736 6.22168528 -41 5 C-41 4.67 -41 4.34 -41 4 C-40.22809326 3.97494385 -39.45618652 3.9498877 -38.66088867 3.92407227 C-35.16958819 3.80815993 -31.67856078 3.68541176 -28.1875 3.5625 C-26.97255859 3.52318359 -25.75761719 3.48386719 -24.50585938 3.44335938 C-23.34248047 3.40146484 -22.17910156 3.35957031 -20.98046875 3.31640625 C-19.90692139 3.27974854 -18.83337402 3.24309082 -17.72729492 3.20532227 C-14.90688447 3.10458153 -14.90688447 3.10458153 -12 2 C-9.93854893 1.931009 -7.87498599 1.91532273 -5.8125 1.9375 C-4.18248047 1.95103516 -4.18248047 1.95103516 -2.51953125 1.96484375 C-1.68808594 1.97644531 -0.85664063 1.98804688 0 2 C0 1.34 0 0.68 0 0 Z " fill="#D0A155" transform="translate(153,249)"/>
<path d="M0 0 C0 0.66 0 1.32 0 2 C-9.64144984 7.36689149 -18.18681887 7.6980045 -28.97583008 7.48706055 C-31.58918243 7.43698877 -34.20066072 7.42553035 -36.81445312 7.41992188 C-38.48179096 7.40585738 -40.14911248 7.38966077 -41.81640625 7.37109375 C-42.59448135 7.36573105 -43.37255646 7.36036835 -44.17420959 7.35484314 C-47.9613585 7.27096373 -49.77502699 7.14998201 -53 5 C-52.32235596 5.02094727 -51.64471191 5.04189453 -50.9465332 5.06347656 C-33.47330348 5.52899723 -16.64517101 0 0 0 Z " fill="#220F03" transform="translate(166,249)"/>
<path d="M0 0 C-0.82242188 0.27972656 -1.64484375 0.55945312 -2.4921875 0.84765625 C-13.65645648 4.85699534 -21.79028392 9.50677664 -28.72265625 19.27734375 C-29.14417969 19.84582031 -29.56570312 20.41429688 -30 21 C-30.33 21 -30.66 21 -31 21 C-31.3125 18.1875 -31.3125 18.1875 -31 15 C-28.5 13.25 -28.5 13.25 -26 12 C-26 11.34 -26 10.68 -26 10 C-24.5 8.375 -24.5 8.375 -23 7 C-23.33 6.01 -23.66 5.02 -24 4 C-23.01 4 -22.02 4 -21 4 C-20.67 4.33 -20.34 4.66 -20 5 C-19.02160156 4.60167969 -19.02160156 4.60167969 -18.0234375 4.1953125 C-4.41292787 -1.30509995 -4.41292787 -1.30509995 0 0 Z " fill="#ECC462" transform="translate(126,50)"/>
<path d="M0 0 C0.99 0.33 1.98 0.66 3 1 C2.67 3.97 2.34 6.94 2 10 C2.66 10 3.32 10 4 10 C4 10.99 4 11.98 4 13 C3.01 13.495 3.01 13.495 2 14 C1.34786708 16.02463255 1.34786708 16.02463255 1 18 C0.34 18 -0.32 18 -1 18 C-1.33 18.66 -1.66 19.32 -2 20 C-2.05379226 17.04142591 -2.09357093 14.08382279 -2.125 11.125 C-2.14175781 10.28324219 -2.15851563 9.44148437 -2.17578125 8.57421875 C-2.18222656 7.76855469 -2.18867187 6.96289062 -2.1953125 6.1328125 C-2.21102295 5.01737061 -2.21102295 5.01737061 -2.22705078 3.87939453 C-2 2 -2 2 0 0 Z " fill="#070301" transform="translate(71,150)"/>
<path d="M0 0 C0.78552246 0.01047363 1.57104492 0.02094727 2.38037109 0.03173828 C3.23115234 0.03818359 4.08193359 0.04462891 4.95849609 0.05126953 C6.29267578 0.07640625 6.29267578 0.07640625 7.65380859 0.10205078 C8.55099609 0.11107422 9.44818359 0.12009766 10.37255859 0.12939453 C12.59157445 0.15300108 14.81005937 0.18592768 17.02880859 0.22705078 C17.02880859 0.55705078 17.02880859 0.88705078 17.02880859 1.22705078 C10.59380859 1.72205078 10.59380859 1.72205078 4.02880859 2.22705078 C4.35880859 3.54705078 4.68880859 4.86705078 5.02880859 6.22705078 C-1.7930597 6.61319427 -7.46696848 5.23570786 -13.97119141 3.22705078 C-11.40052954 2.50926857 -9.56474376 2.23517973 -6.84619141 2.28955078 C-3.32610838 2.21302724 -3.19631365 0.36816593 0 0 Z " fill="#231906" transform="translate(114.97119140625,190.77294921875)"/>
<path d="M0 0 C-1.875 4.75 -1.875 4.75 -3 7 C-1.35 7 0.3 7 2 7 C-0.36300349 9.36300349 -1.5798498 9.51433444 -4.8125 10.125 C-6.09060547 10.37636719 -6.09060547 10.37636719 -7.39453125 10.6328125 C-9.96843811 10.995552 -12.40461588 11.06523407 -15 11 C-12 9 -12 9 -10 9 C-9.67 7.68 -9.34 6.36 -9 5 C-10.32 4.67 -11.64 4.34 -13 4 C-11.2097939 3.32942113 -9.41778511 2.6636531 -7.625 2 C-6.62726563 1.62875 -5.62953125 1.2575 -4.6015625 0.875 C-2 0 -2 0 0 0 Z " fill="#1B1306" transform="translate(148,186)"/>
<path d="M0 0 C0.33 0 0.66 0 1 0 C1.20852314 6.40629424 1.1583195 11.92972642 -1 18 C-1.33 18 -1.66 18 -2 18 C-2.10957031 18.98742187 -2.21914062 19.97484375 -2.33203125 20.9921875 C-2.56986328 22.91417969 -2.56986328 22.91417969 -2.8125 24.875 C-2.96332031 26.15117188 -3.11414063 27.42734375 -3.26953125 28.7421875 C-4 32 -4 32 -7 34 C-9.6875 33.625 -9.6875 33.625 -12 33 C-12 32.67 -12 32.34 -12 32 C-10.02 32 -8.04 32 -6 32 C-5.98582031 31.36578125 -5.97164062 30.7315625 -5.95703125 30.078125 C-5.42791394 19.72458637 -2.6851785 9.97140666 0 0 Z " fill="#DAB35F" transform="translate(178,57)"/>
<path d="M0 0 C1.32 0.66 2.64 1.32 4 2 C3.01 2.58007812 2.02 3.16015625 1 3.7578125 C-5.94863072 7.85946533 -12.67356122 11.96467118 -19 17 C-19 15.68 -19 14.36 -19 13 C-17.68 13 -16.36 13 -15 13 C-14.7834375 11.824375 -14.7834375 11.824375 -14.5625 10.625 C-14 8 -14 8 -13 6 C-10.03 6.495 -10.03 6.495 -7 7 C-6.67 5.35 -6.34 3.7 -6 2 C-3.03 2.495 -3.03 2.495 0 3 C0 2.01 0 1.02 0 0 Z " fill="#1B1003" transform="translate(67,15)"/>
<path d="M0 0 C1.32 0.33 2.64 0.66 4 1 C4 1.66 4 2.32 4 3 C4.928125 3.1546875 4.928125 3.1546875 5.875 3.3125 C8 4 8 4 10 7 C10.125 9.6875 10.125 9.6875 10 12 C8.68 12.33 7.36 12.66 6 13 C5.566875 12.05125 5.13375 11.1025 4.6875 10.125 C3.20697799 6.79958063 3.20697799 6.79958063 0 5 C-0.1875 2.375 -0.1875 2.375 0 0 Z " fill="#0A0602" transform="translate(17,195)"/>
<path d="M0 0 C1.37163873 0.0265051 2.74300063 0.0740941 4.11328125 0.140625 C5.16612305 0.16769531 5.16612305 0.16769531 6.24023438 0.1953125 C7.96933561 0.24236287 9.6977333 0.31410627 11.42578125 0.390625 C8.12800742 2.58914088 4.8460529 3.69352622 1.11328125 4.890625 C0.46166016 5.10332031 -0.18996094 5.31601563 -0.86132812 5.53515625 C-2.76476196 6.15629682 -4.66947537 6.77351188 -6.57421875 7.390625 C-8.57489136 8.05527044 -10.57515049 8.72116958 -12.57421875 9.390625 C-12.24421875 8.400625 -11.91421875 7.410625 -11.57421875 6.390625 C-10.79046875 6.08125 -10.00671875 5.771875 -9.19921875 5.453125 C-6.4443369 4.65134288 -6.4443369 4.65134288 -5.390625 2.33984375 C-3.57421875 0.390625 -3.57421875 0.390625 0 0 Z " fill="#180E02" transform="translate(87.57421875,4.609375)"/>
<path d="M0 0 C0.66 0 1.32 0 2 0 C2.94401042 1.7578125 3.88802083 3.515625 4.83203125 5.2734375 C6.04763493 7.30502365 6.04763493 7.30502365 9 9 C9.1875 11.625 9.1875 11.625 9 14 C8.01 14.495 8.01 14.495 7 15 C7 14.01 7 13.02 7 12 C6.01 12.33 5.02 12.66 4 13 C4 12.34 4 11.68 4 11 C3.01 10.67 2.02 10.34 1 10 C0.234375 7.96875 0.234375 7.96875 -0.25 5.5 C-0.42015625 4.6853125 -0.5903125 3.870625 -0.765625 3.03125 C-0.84296875 2.3609375 -0.9203125 1.690625 -1 1 C-0.67 0.67 -0.34 0.34 0 0 Z " fill="#040206" transform="translate(247,32)"/>
<path d="M0 0 C4.455 0.99 4.455 0.99 9 2 C9 2.66 9 3.32 9 4 C12.63 4.66 16.26 5.32 20 6 C20 6.66 20 7.32 20 8 C23.3 8.33 26.6 8.66 30 9 C30 9.33 30 9.66 30 10 C18.94720152 10.74934227 8.93884704 7.48504589 0 1 C0 0.67 0 0.34 0 0 Z " fill="#D9B765" transform="translate(92,181)"/>
<path d="M0 0 C4.70458625 1.12747843 8.98333553 3.33884917 13.265625 5.54296875 C9.5521386 6.91833408 7.83655547 5.97134094 4.265625 4.54296875 C0.91056974 4.30246943 0.91056974 4.30246943 -2.546875 4.41796875 C-3.70832031 4.43601563 -4.86976562 4.4540625 -6.06640625 4.47265625 C-6.94683594 4.49585938 -7.82726562 4.5190625 -8.734375 4.54296875 C-9.064375 5.53296875 -9.394375 6.52296875 -9.734375 7.54296875 C-10.724375 7.21296875 -11.714375 6.88296875 -12.734375 6.54296875 C-8.95586545 2.57553372 -5.8507243 -0.42613543 0 0 Z " fill="#D8BB5E" transform="translate(78.734375,183.45703125)"/>
<path d="M0 0 C4.89684844 4.36745942 7.77206425 8.32825244 8.1796875 14.89453125 C8.18664314 17.60375431 8.13210564 20.29428076 8 23 C7.34 23 6.68 23 6 23 C5.67 19.7 5.34 16.4 5 13 C4.01 12.67 3.02 12.34 2 12 C1.40267181 9.23735711 1 6.83967231 1 4 C0.6937566 2.66018514 0.36548445 1.32488113 0 0 Z " fill="#D4B259" transform="translate(160,64)"/>
<path d="M0 0 C1.98 0 3.96 0 6 0 C6.33 6.27 6.66 12.54 7 19 C6.67 18.01 6.34 17.02 6 16 C5.34 16 4.68 16 4 16 C4 13.03 4 10.06 4 7 C2.68 7.33 1.36 7.66 0 8 C0 5.36 0 2.72 0 0 Z " fill="#2F2108" transform="translate(69,144)"/>
<path d="M0 0 C0.99 0.33 1.98 0.66 3 1 C1.35 5.62 -0.3 10.24 -2 15 C-2.66 14.34 -3.32 13.68 -4 13 C-3.625 10.375 -3.625 10.375 -3 8 C-3.99 8 -4.98 8 -6 8 C-8.33564933 7.68330179 -10.6693782 7.35179197 -13 7 C-13 6.67 -13 6.34 -13 6 C-12.39671875 5.90203125 -11.7934375 5.8040625 -11.171875 5.703125 C-6.29421718 4.79053096 -3.16176612 4.12404277 0 0 Z " fill="#221505" transform="translate(179,49)"/>
<path d="M0 0 C1.35091528 2.70183055 1.33858058 5.11808206 1.5625 8.125 C1.64628906 9.22070312 1.73007813 10.31640625 1.81640625 11.4453125 C1.87699219 12.28835937 1.93757812 13.13140625 2 14 C2.66 14 3.32 14 4 14 C5.48320272 17.83887763 6.22419163 20.06204091 5 24 C3.86572603 21.6707957 2.74259616 19.33719515 1.625 17 C1.30789062 16.35160156 0.99078125 15.70320312 0.6640625 15.03515625 C-1.52787631 10.42295167 -2.89773948 5.98800719 -4 1 C-2.68 0.67 -1.36 0.34 0 0 Z " fill="#EABE5E" transform="translate(11,162)"/>
<path d="M0 0 C-4.49162942 5.24912511 -9.40558192 5.35784693 -16 6 C-19.02561541 6.127305 -21.97014619 6.10099513 -25 6 C-21.7863072 4.2865045 -18.7052125 3.39852672 -15.15234375 2.578125 C-12.94411326 1.98498868 -10.92214874 1.18985864 -8.8125 0.3125 C-5.52978292 -0.98245743 -3.43097083 -1.17939622 0 0 Z " fill="#D6B25D" transform="translate(163,191)"/>
<path d="M0 0 C2.5 1.1875 2.5 1.1875 5 3 C5.3125 5.6875 5.3125 5.6875 5 8 C4.34 8 3.68 8 3 8 C3 8.66 3 9.32 3 10 C-0.91211733 8.84414715 -3.8745041 7.64465038 -7 5 C-3.25 3.875 -3.25 3.875 -1 5 C-0.67 3.35 -0.34 1.7 0 0 Z " fill="#1A1206" transform="translate(88,179)"/>
<path d="M0 0 C0.33 0 0.66 0 1 0 C1.054138 2.24973447 1.09285491 4.49984383 1.125 6.75 C1.14820313 8.00296875 1.17140625 9.2559375 1.1953125 10.546875 C1.0121817 13.78462754 0.61042682 15.2863674 -1 18 C-1 18.66 -1 19.32 -1 20 C-1.66 20 -2.32 20 -3 20 C-3 20.66 -3 21.32 -3 22 C-3.99 22.33 -4.98 22.66 -6 23 C-5.81824219 22.34515625 -5.63648438 21.6903125 -5.44921875 21.015625 C-3.52672958 14.03551046 -1.72994005 7.0301819 0 0 Z " fill="#2F1705" transform="translate(255,142)"/>
<path d="M0 0 C2.4932534 0.99730136 3.77467439 1.65074531 5.25 3.9375 C6 6 6 6 6 9 C7.98 8.67 9.96 8.34 12 8 C12.33 9.32 12.66 10.64 13 12 C12.34 12 11.68 12 11 12 C11.33 13.32 11.66 14.64 12 16 C11.01 16 10.02 16 9 16 C7.28771335 13.73469504 5.7909964 11.53492555 4.3125 9.125 C3.89677734 8.47402344 3.48105469 7.82304687 3.05273438 7.15234375 C0 2.29002463 0 2.29002463 0 0 Z " fill="#F2BF5A" transform="translate(17,186)"/>
<path d="M0 0 C3.69273255 3.29708264 5.92856786 6.53845386 8 11 C7.22156157 14.11375372 5.34444412 15.86868717 3 18 C1.9851288 14.37546001 1.5052179 10.72598198 1 7 C0.814375 5.700625 0.62875 4.40125 0.4375 3.0625 C0.293125 2.051875 0.14875 1.04125 0 0 Z " fill="#F1AD4F" transform="translate(239,29)"/>
<path d="M0 0 C-0.94101563 0.32613281 -1.88203125 0.65226563 -2.8515625 0.98828125 C-4.09679687 1.42527344 -5.34203125 1.86226563 -6.625 2.3125 C-7.85476562 2.74175781 -9.08453125 3.17101562 -10.3515625 3.61328125 C-13.974704 4.912442 -13.974704 4.912442 -17.15625 6.625 C-19.91083907 7.95688922 -21.85468616 8.45868835 -24.875 8.6875 C-25.65617187 8.75324219 -26.43734375 8.81898437 -27.2421875 8.88671875 C-27.82226562 8.92410156 -28.40234375 8.96148437 -29 9 C-24.59432694 5.40803295 -19.83775096 4.00993688 -14.5 2.25 C-13.54996094 1.92128906 -12.59992188 1.59257813 -11.62109375 1.25390625 C-10.70457031 0.94839844 -9.78804687 0.64289062 -8.84375 0.328125 C-7.59368164 -0.09098145 -7.59368164 -0.09098145 -6.31835938 -0.51855469 C-3.81917401 -1.03755148 -2.38960625 -0.82082562 0 0 Z " fill="#C09F4F" transform="translate(106,5)"/>
<path d="M0 0 C0.33 0.66 0.66 1.32 1 2 C1.99 2.33 2.98 2.66 4 3 C1.19680829 5.99876322 -1.59434917 8.16322727 -5.125 10.25 C-5.99382812 10.77078125 -6.86265625 11.2915625 -7.7578125 11.828125 C-10 13 -10 13 -12 13 C-12 12.34 -12 11.68 -12 11 C-11.34 11 -10.68 11 -10 11 C-10 10.34 -10 9.68 -10 9 C-8.35 8.34 -6.7 7.68 -5 7 C-5 6.01 -5 5.02 -5 4 C-4.01 3.67 -3.02 3.34 -2 3 C-1.34 2.01 -0.68 1.02 0 0 Z " fill="#EEB252" transform="translate(195,228)"/>
<path d="M0 0 C1.60080151 4.00200378 0.29279692 7.04556236 -1 11 C-1.66 11 -2.32 11 -3 11 C-3.04898437 11.59167969 -3.09796875 12.18335937 -3.1484375 12.79296875 C-3.56456867 17.19104472 -4.04965595 20.96928897 -6 25 C-6.33 25 -6.66 25 -7 25 C-7.51475686 18.05078242 -5.84460771 13.29076329 -3 7 C-2.41459153 5.62588221 -1.83097668 4.25099741 -1.25 2.875 C-0.8375 1.92625 -0.425 0.9775 0 0 Z " fill="#D2AA57" transform="translate(13,77)"/>
<path d="M0 0 C0 0.66 0 1.32 0 2 C-0.99 2 -1.98 2 -3 2 C-2.938125 2.7425 -2.87625 3.485 -2.8125 4.25 C-3.03353711 7.49187763 -3.72162458 8.72162458 -6 11 C-6.99 11 -7.98 11 -9 11 C-9.66 9.35 -10.32 7.7 -11 6 C-9.54550599 4.9944239 -8.08627557 3.99569565 -6.625 3 C-5.40683594 2.1646875 -5.40683594 2.1646875 -4.1640625 1.3125 C-2 0 -2 0 0 0 Z " fill="#ECC059" transform="translate(127,57)"/>
<path d="M0 0 C0.66 1.32 1.32 2.64 2 4 C-0.64 7.3 -3.28 10.6 -6 14 C-6.33 13.34 -6.66 12.68 -7 12 C-7.66 11.67 -8.32 11.34 -9 11 C-6.03 7.37 -3.06 3.74 0 0 Z " fill="#DCB654" transform="translate(35,44)"/>
<path d="M0 0 C2.29160319 -0.02692484 4.58329546 -0.04636124 6.875 -0.0625 C8.15117188 -0.07410156 9.42734375 -0.08570313 10.7421875 -0.09765625 C14 0 14 0 16 1 C16 1.66 16 2.32 16 3 C17.98 3 19.96 3 22 3 C21.67 3.66 21.34 4.32 21 5 C13.60860415 4.59248958 7.00177279 3.41492814 0 1 C0 0.67 0 0.34 0 0 Z " fill="#D9AB50" transform="translate(90,248)"/>
<path d="M0 0 C3.21880117 3.7935871 5.6163187 7.65829477 8 12 C7.01 12 6.02 12 5 12 C5 11.34 5 10.68 5 10 C3.35 10 1.7 10 0 10 C-0.33 8.68 -0.66 7.36 -1 6 C-1.66 6 -2.32 6 -3 6 C-2 4 -1 2 0 0 Z " fill="#191106" transform="translate(16,186)"/>
<path d="M0 0 C0.66 0 1.32 0 2 0 C1 3 1 3 -1.6953125 4.38671875 C-13.04724999 8.69218023 -13.04724999 8.69218023 -19 8 C-19 7.34 -19 6.68 -19 6 C-16.36 6 -13.72 6 -11 6 C-11 5.34 -11 4.68 -11 4 C-10.21625 3.690625 -9.4325 3.38125 -8.625 3.0625 C-6.07669872 2.07124962 -6.07669872 2.07124962 -4 1 C-1.875 1.4375 -1.875 1.4375 0 2 C0 1.34 0 0.68 0 0 Z " fill="#E7BF61" transform="translate(147,183)"/>
<path d="M0 0 C2.97 0 5.94 0 9 0 C9 0.66 9 1.32 9 2 C8.34 2 7.68 2 7 2 C7 2.66 7 3.32 7 4 C7.99 4 8.98 4 10 4 C10 4.66 10 5.32 10 6 C10.66 6.33 11.32 6.66 12 7 C10.02 7 8.04 7 6 7 C5.67 6.01 5.34 5.02 5 4 C3.02 4 1.04 4 -1 4 C-0.67 2.68 -0.34 1.36 0 0 Z " fill="#060403" transform="translate(144,51)"/>
<path d="M0 0 C1.79244141 0.01740234 1.79244141 0.01740234 3.62109375 0.03515625 C5.41740234 0.04869141 5.41740234 0.04869141 7.25 0.0625 C8.17683594 0.07410156 9.10367188 0.08570313 10.05859375 0.09765625 C8.15504568 2.60594161 7.05279649 3.0990063 3.921875 3.828125 C2.75011719 3.97894531 1.57835938 4.12976563 0.37109375 4.28515625 C-0.80839844 4.44371094 -1.98789063 4.60226563 -3.203125 4.765625 C-4.10675781 4.87519531 -5.01039062 4.98476562 -5.94140625 5.09765625 C-3.53153164 0.11724873 -3.53153164 0.11724873 0 0 Z " fill="#1A0D03" transform="translate(104.94140625,-0.09765625)"/>
<path d="M0 0 C2.97 0 5.94 0 9 0 C5.0478005 3.9521995 -1.62951768 4.20263581 -7 5 C-9.8672179 4.96685297 -12.18891735 4.61843818 -15 4 C-11.47320901 1.64880601 -9.97120515 1.78556548 -5.8125 1.875 C-4.72582031 1.89304688 -3.63914063 1.91109375 -2.51953125 1.9296875 C-1.27236328 1.96449219 -1.27236328 1.96449219 0 2 C0 1.34 0 0.68 0 0 Z " fill="#DDA953" transform="translate(153,249)"/>
<path d="M0 0 C2.72134477 3.25603715 4.17808903 6.54742834 5.6875 10.5 C6.34298828 12.18609375 6.34298828 12.18609375 7.01171875 13.90625 C8 17 8 17 8 21 C7.34 21 6.68 21 6 21 C5.57682292 18.98177083 5.15364583 16.96354167 4.73046875 14.9453125 C4.07691162 12.62953451 4.07691162 12.62953451 1 11 C0.8125 8.375 0.8125 8.375 1 6 C-0.32 5.34 -1.64 4.68 -3 4 C-2.01 4 -1.02 4 0 4 C0 2.68 0 1.36 0 0 Z " fill="#CF9A4C" transform="translate(247,43)"/>
<path d="M0 0 C2.31 0 4.62 0 7 0 C7 0.66 7 1.32 7 2 C8.65 2 10.3 2 12 2 C12.66 3.32 13.32 4.64 14 6 C14.99 6 15.98 6 17 6 C17 6.99 17 7.98 17 9 C13.10391502 7.51095825 9.40902982 5.75621287 5.6875 3.875 C4.61886719 3.33617187 3.55023438 2.79734375 2.44921875 2.2421875 C1.64097656 1.83226562 0.83273438 1.42234375 0 1 C0 0.67 0 0.34 0 0 Z " fill="#281506" transform="translate(208,6)"/>
<path d="M0 0 C-2 2 -2 2 -4.625 2.125 C-5.40875 2.08375 -6.1925 2.0425 -7 2 C-7.33 2.99 -7.66 3.98 -8 5 C-8.33 5.99 -8.66 6.98 -9 8 C-10.65 8.33 -12.3 8.66 -14 9 C-14 8.34 -14 7.68 -14 7 C-14.33 6.34 -14.66 5.68 -15 5 C-14.34 5 -13.68 5 -13 5 C-12.814375 4.38125 -12.62875 3.7625 -12.4375 3.125 C-11 1 -11 1 -7.625 -0.3125 C-4.44723 -0.91518052 -2.92598077 -1.17039231 0 0 Z " fill="#F0C354" transform="translate(85,14)"/>
<path d="M0 0 C1.95825873 -0.02694851 3.91662226 -0.04637218 5.875 -0.0625 C6.96554688 -0.07410156 8.05609375 -0.08570313 9.1796875 -0.09765625 C12 0 12 0 14 1 C14 2.65 14 4.3 14 6 C12.41375765 5.57316761 10.8310902 5.13303842 9.25 4.6875 C8.36828125 4.44386719 7.4865625 4.20023437 6.578125 3.94921875 C3.94227495 2.97874669 2.14592674 1.78994356 0 0 Z " fill="#1E1105" transform="translate(194,0)"/>
<path d="M0 0 C0.33 0 0.66 0 1 0 C1.07476562 1.05058594 1.14953125 2.10117188 1.2265625 3.18359375 C1.92083119 11.07232747 2.58354769 17.01645381 7.85546875 23.30078125 C8.42201172 24.14189453 8.42201172 24.14189453 9 25 C8.67 25.99 8.34 26.98 8 28 C1.56891589 21.3951028 -0.16596077 14.50763201 -0.1875 5.375 C-0.1401011 3.58287025 -0.08307976 1.79083038 0 0 Z " fill="#E9CA78" transform="translate(75,147)"/>
<path d="M0 0 C0 0.66 0 1.32 0 2 C-0.99 2 -1.98 2 -3 2 C-3.2475 2.61875 -3.495 3.2375 -3.75 3.875 C-5.26029304 6.44249816 -6.36091208 6.71815729 -9 8 C-10.70496537 9.62746694 -12.37897032 11.28891311 -14 13 C-14.33 11.68 -14.66 10.36 -15 9 C-13.58680023 7.87064804 -12.16928595 6.74669374 -10.75 5.625 C-9.96109375 4.99851562 -9.1721875 4.37203125 -8.359375 3.7265625 C-3.26696833 0 -3.26696833 0 0 0 Z " fill="#221709" transform="translate(117,53)"/>
<path d="M0 0 C0 4.60813618 -2.90215622 6.79654791 -6 10 C-8.98028131 12.79766603 -12.07257054 15.69085685 -16 17 C-17.34291094 16.70763193 -18.67871882 16.37829212 -20 16 C-19.35933594 15.63648438 -18.71867188 15.27296875 -18.05859375 14.8984375 C-11.17579993 10.89800592 -4.44202202 6.79368073 0 0 Z " fill="#E0BF6B" transform="translate(181,173)"/>
<path d="M0 0 C0.66 0 1.32 0 2 0 C-0.19851951 8.36980236 -3.49070196 16.11827559 -7 24 C-8.0516399 20.84508031 -7.98032423 19.96644412 -7.1875 16.875 C-7.01605469 16.17117187 -6.84460938 15.46734375 -6.66796875 14.7421875 C-6 13 -6 13 -4 12 C-3.34227572 8.97065509 -3.34227572 8.97065509 -3 6 C-2.34 6 -1.68 6 -1 6 C-0.67 4.02 -0.34 2.04 0 0 Z " fill="#E2AA57" transform="translate(249,158)"/>
<path d="M0 0 C2.06547922 3.09821883 3.56243611 6.18449352 5.125 9.5625 C5.66382813 10.71878906 6.20265625 11.87507812 6.7578125 13.06640625 C8 16 8 16 8 18 C7.01 18.33 6.02 18.66 5 19 C2.12059087 12.5849443 0.4535179 7.02952752 0 0 Z " fill="#2D1C0B" transform="translate(8,168)"/>
<path d="M0 0 C3.3 0.33 6.6 0.66 10 1 C9.34 2.32 8.68 3.64 8 5 C5.03 4.67 2.06 4.34 -1 4 C-0.67 2.68 -0.34 1.36 0 0 Z " fill="#060402" transform="translate(103,189)"/>
<path d="M0 0 C0.99 0.33 1.98 0.66 3 1 C2.52753358 5.25219775 0.22727623 7.37314725 -3 10 C-5.3125 9.8125 -5.3125 9.8125 -7 9 C-7 8.34 -7 7.68 -7 7 C-6.01 6.67 -5.02 6.34 -4 6 C-3.67 5.01 -3.34 4.02 -3 3 C-2.01 2.34 -1.02 1.68 0 1 C0 0.67 0 0.34 0 0 Z " fill="#F6BE42" transform="translate(152,173)"/>
<path d="M0 0 C5.61 0.33 11.22 0.66 17 1 C17 1.66 17 2.32 17 3 C18.32 3.66 19.64 4.32 21 5 C13.42733125 5.5939348 7.12481267 3.43286286 0 1 C0 0.67 0 0.34 0 0 Z " fill="#D5B362" transform="translate(150,50)"/>
<path d="M0 0 C1.46366342 0.39753821 2.9208935 0.81881384 4.375 1.25 C5.18710937 1.48203125 5.99921875 1.7140625 6.8359375 1.953125 C9.51094759 3.2471732 9.81715217 4.34878935 11 7 C14.03201925 9.24407254 14.03201925 9.24407254 17 11 C16.67 11.66 16.34 12.32 16 13 C4.29384966 4.738041 4.29384966 4.738041 0 0 Z " fill="#DDB25F" transform="translate(45,222)"/>
<path d="M0 0 C0.99 0.33 1.98 0.66 3 1 C3.33 4.96 3.66 8.92 4 13 C2.68 12.67 1.36 12.34 0 12 C0 8.04 0 4.08 0 0 Z " fill="#2A1A08" transform="translate(0,141)"/>
<path d="M0 0 C0.66 0 1.32 0 2 0 C1.81824219 0.58265625 1.63648438 1.1653125 1.44921875 1.765625 C-0.60235511 8.45691206 -2.35228894 15.19880965 -4 22 C-5.57865764 19.54877523 -6.05330126 18.38248046 -5.64453125 15.44921875 C-5.36996094 14.53785156 -5.09539063 13.62648438 -4.8125 12.6875 C-4.52375 11.72585937 -4.235 10.76421875 -3.9375 9.7734375 C-2.80017392 6.40884785 -1.50152277 3.2175488 0 0 Z " fill="#251304" transform="translate(8,84)"/>
<path d="M0 0 C4.29 0 8.58 0 13 0 C10 4 10 4 8.02734375 4.4609375 C2.22222222 4.22222222 2.22222222 4.22222222 0 2 C0 1.34 0 0.68 0 0 Z " fill="#EFC059" transform="translate(165,50)"/>
<path d="M0 0 C2.78162695 0.63046603 5.28492526 1.47315233 7.890625 2.62890625 C8.59960938 2.94150391 9.30859375 3.25410156 10.0390625 3.57617188 C11.13347656 4.0644043 11.13347656 4.0644043 12.25 4.5625 C12.99507812 4.89185547 13.74015625 5.22121094 14.5078125 5.56054688 C16.33980368 6.37085066 18.17007345 7.18504434 20 8 C20 8.99 20 9.98 20 11 C19.67 10.34 19.34 9.68 19 9 C16.3021027 8.30625498 13.64087405 7.95690489 10.875 7.625 C7.71279041 6.93756313 7.10919492 6.29260317 5 4 C2.40084462 2.80972016 2.40084462 2.80972016 0 2 C0 1.34 0 0.68 0 0 Z " fill="#DFAA5A" transform="translate(199,3)"/>
<path d="M0 0 C1.32 0.33 2.64 0.66 4 1 C4.33 2.65 4.66 4.3 5 6 C4.01 6.33 3.02 6.66 2 7 C2.061875 8.423125 2.061875 8.423125 2.125 9.875 C2 13 2 13 0 15 C0 10.05 0 5.1 0 0 Z " fill="#FAB449" transform="translate(241,164)"/>
<path d="M0 0 C1.09212619 2.9123365 0.91905672 4.53062818 0.4375 7.6875 C-0.27347717 12.40661096 0.72713356 16.45555121 2 21 C1.01 20.67 0.02 20.34 -1 20 C-2.11083501 16.66749498 -2.16759585 14.06961042 -2.1875 10.5625 C-2.20167969 9.42941406 -2.21585937 8.29632813 -2.23046875 7.12890625 C-2.01071135 4.14542021 -1.55843386 2.50704577 0 0 Z " fill="#E6C66A" transform="translate(114,66)"/>
<path d="M0 0 C1.56393356 3.97376829 0.36145292 6.81377903 -0.9375 10.75 C-1.31777344 11.92046875 -1.69804687 13.0909375 -2.08984375 14.296875 C-2.39019531 15.18890625 -2.69054687 16.0809375 -3 17 C-3.99 16.67 -4.98 16.34 -6 16 C-4.25192871 10.53262809 -2.34205919 5.24175152 0 0 Z " fill="#2F1809" transform="translate(248,166)"/>
<path d="M0 0 C2.38447721 4.76895442 1.58391267 6.95642979 0.125 11.75 C-0.07480469 12.44738281 -0.27460938 13.14476562 -0.48046875 13.86328125 C-0.9741108 15.57927505 -1.48535503 17.2901878 -2 19 C-2.33 19 -2.66 19 -3 19 C-3.33 16.36 -3.66 13.72 -4 11 C-3.01 10.67 -2.02 10.34 -1 10 C-0.67 6.7 -0.34 3.4 0 0 Z " fill="#E4A34B" transform="translate(254,138)"/>
<path d="M0 0 C1.32 0 2.64 0 4 0 C2.79618552 2.49361571 1.54571278 4.68143083 0 7 C-0.99 7 -1.98 7 -3 7 C-3 6.01 -3 5.02 -3 4 C-4.98 4 -6.96 4 -9 4 C-9 3.67 -9 3.34 -9 3 C-8.43410156 2.86722656 -7.86820312 2.73445312 -7.28515625 2.59765625 C-6.18494141 2.33275391 -6.18494141 2.33275391 -5.0625 2.0625 C-4.33160156 1.88847656 -3.60070312 1.71445312 -2.84765625 1.53515625 C-1.00030102 1.16112431 -1.00030102 1.16112431 0 0 Z " fill="#DCA743" transform="translate(115,0)"/>
<path d="M0 0 C2 3 2 3 2 6 C-2.37113496 5.49172849 -5.38995662 4.54826592 -9 2 C-9 1.67 -9 1.34 -9 1 C-7.88625 1.020625 -6.7725 1.04125 -5.625 1.0625 C-2.16784079 1.26380718 -2.16784079 1.26380718 0 0 Z " fill="#E3B355" transform="translate(88,242)"/>
<path d="M0 0 C0 0.66 0 1.32 0 2 C-0.99 2.495 -0.99 2.495 -2 3 C-2 4.65 -2 6.3 -2 8 C-3.32 8 -4.64 8 -6 8 C-5.67 6.35 -5.34 4.7 -5 3 C-5.66 3 -6.32 3 -7 3 C-6.67 2.01 -6.34 1.02 -6 0 C-3.50907189 -1.24546405 -2.58919267 -0.7767578 0 0 Z " fill="#140B08" transform="translate(194,238)"/>
<path d="M0 0 C0.99 0.66 1.98 1.32 3 2 C2.67 2.99 2.34 3.98 2 5 C1.34 5 0.68 5 0 5 C0 5.66 0 6.32 0 7 C-2.76264289 7.59732819 -5.16032769 8 -8 8 C-8 7.34 -8 6.68 -8 6 C-6.34928604 4.97388051 -4.68029994 3.97691857 -3 3 C-1.24850835 1.41754725 -1.24850835 1.41754725 0 0 Z " fill="#050202" transform="translate(217,218)"/>
<path d="M0 0 C0.66 0 1.32 0 2 0 C2.33 0.99 2.66 1.98 3 3 C3.66 2.34 4.32 1.68 5 1 C5.66 1 6.32 1 7 1 C6.67 2.32 6.34 3.64 6 5 C5.34 5 4.68 5 4 5 C4.33 6.32 4.66 7.64 5 9 C3.68 8.67 2.36 8.34 1 8 C0.67 5.36 0.34 2.72 0 0 Z " fill="#F6C643" transform="translate(114,78)"/>
<path d="M0 0 C0.99 0 1.98 0 3 0 C5.42130331 3.63195496 5.21022785 5.38349348 5.125 9.6875 C5.10695313 10.86699219 5.08890625 12.04648438 5.0703125 13.26171875 C5.03550781 14.61716797 5.03550781 14.61716797 5 16 C3.43912307 13.19923293 2.73936931 11.00209602 2.5 7.8125 C2.335 6.554375 2.17 5.29625 2 4 C1.34 3.67 0.68 3.34 0 3 C0 2.01 0 1.02 0 0 Z " fill="#E4BB5B" transform="translate(0,138)"/>
<path d="M0 0 C1.051875 0.185625 2.10375 0.37125 3.1875 0.5625 C6.57119882 0.95079331 8.76425888 0.88247485 12 0 C11.34 1.32 10.68 2.64 10 4 C8.68 4 7.36 4 6 4 C5.67 4.66 5.34 5.32 5 6 C5 5.34 5 4.68 5 4 C3.35 3.67 1.7 3.34 0 3 C0 2.01 0 1.02 0 0 Z " fill="#F8C13F" transform="translate(161,90)"/>
<path d="M0 0 C0.99 0 1.98 0 3 0 C3.27714844 0.91523437 3.55429688 1.83046875 3.83984375 2.7734375 C4.20207031 3.96195313 4.56429687 5.15046875 4.9375 6.375 C5.29714844 7.55835938 5.65679687 8.74171875 6.02734375 9.9609375 C6.87576274 12.87926818 6.87576274 12.87926818 8 15 C8.039992 16.99960012 8.04346799 19.00047242 8 21 C6.01457269 17.24118131 4.45310017 13.31647506 2.875 9.375 C2.59785156 8.694375 2.32070312 8.01375 2.03515625 7.3125 C0 2.23964748 0 2.23964748 0 0 Z " fill="#260E01" transform="translate(248,43)"/>
<path d="M0 0 C1.5 1.375 1.5 1.375 3 3 C3 3.66 3 4.32 3 5 C3.66 5 4.32 5 5 5 C4.67 6.32 4.34 7.64 4 9 C2.35 9 0.7 9 -1 9 C-0.34 8.67 0.32 8.34 1 8 C1 7.34 1 6.68 1 6 C0.01 5.67 -0.98 5.34 -2 5 C-1.34 4.67 -0.68 4.34 0 4 C0 2.68 0 1.36 0 0 Z " fill="#040309" transform="translate(76,169)"/>
<path d="M0 0 C0.66 1.32 1.32 2.64 2 4 C0.35 5.98 -1.3 7.96 -3 10 C-3.99928333 7.301935 -4.03624754 6.11989571 -3.1875 3.3125 C-2 1 -2 1 0 0 Z " fill="#E6AA4E" transform="translate(228,198)"/>
<path d="M0 0 C0.99 0.33 1.98 0.66 3 1 C1.68775452 4.93673644 0.08089673 7.22719294 -3 10 C-3.99 9.67 -4.98 9.34 -6 9 C-4.02 6.03 -2.04 3.06 0 0 Z " fill="#241306" transform="translate(236,191)"/>
<path d="M0 0 C0.86625 0.61875 1.7325 1.2375 2.625 1.875 C5.75628186 3.84654784 8.46384469 4.98966991 12 6 C12 6.99 12 7.98 12 9 C6.68972746 7.53967505 2.53669968 5.01679014 -2 2 C-1.34 1.34 -0.68 0.68 0 0 Z " fill="#261907" transform="translate(107,119)"/>
<path d="M0 0 C4.08718695 -0.24042276 7.17679443 0.57741188 11 2 C11 2.66 11 3.32 11 4 C8.36 4.66 5.72 5.32 3 6 C3.33 4.35 3.66 2.7 4 1 C2.68 1.33 1.36 1.66 0 2 C0 1.34 0 0.68 0 0 Z " fill="#0E0C12" transform="translate(77,0)"/>
<path d="M0 0 C1.32 0.33 2.64 0.66 4 1 C1.32522069 3.67477931 -1.492975 4.6464114 -5 6 C-5.99 6 -6.98 6 -8 6 C-7.34 4.68 -6.68 3.36 -6 2 C-4.02 2 -2.04 2 0 2 C0 1.34 0 0.68 0 0 Z " fill="#E4AE57" transform="translate(177,241)"/>
<path d="M0 0 C0.33 0 0.66 0 1 0 C1.08159574 4.16138263 0.98248524 7.9472484 0 12 C-1.65 12 -3.3 12 -5 12 C-4.34 10.68 -3.68 9.36 -3 8 C-2.34 8.33 -1.68 8.66 -1 9 C-1.33 7.02 -1.66 5.04 -2 3 C-1.34 3 -0.68 3 0 3 C0 2.01 0 1.02 0 0 Z " fill="#271703" transform="translate(172,77)"/>
<path d="M0 0 C0 0.99 0 1.98 0 3 C-0.61875 3.2475 -1.2375 3.495 -1.875 3.75 C-4.35068687 5.20628639 -4.95125002 6.37812506 -6 9 C-6.99 8.34 -7.98 7.68 -9 7 C-8.06894211 6.01470572 -7.12987519 5.03697556 -6.1875 4.0625 C-5.66542969 3.51722656 -5.14335938 2.97195312 -4.60546875 2.41015625 C-3 1 -3 1 0 0 Z " fill="#E3BA5B" transform="translate(45,36)"/>
<path d="M0 0 C5.75 0.75 5.75 0.75 8 3 C7.625 5.625 7.625 5.625 7 8 C5.68 7.34 4.36 6.68 3 6 C3 4.33333333 3 2.66666667 3 1 C2.01 0.67 1.02 0.34 0 0 Z " fill="#EBAA49" transform="translate(190,0)"/>
<path d="M0 0 C0.33 0.66 0.66 1.32 1 2 C-1.38179263 5.74281699 -3.74475735 8.97727468 -7 12 C-7.66 11.67 -8.32 11.34 -9 11 C-6.03 7.37 -3.06 3.74 0 0 Z " fill="#291204" transform="translate(229,202)"/>
<path d="M0 0 C0.33 0 0.66 0 1 0 C0.67 2.97 0.34 5.94 0 9 C-0.66 9 -1.32 9 -2 9 C-1.67 10.32 -1.34 11.64 -1 13 C-2.32 13 -3.64 13 -5 13 C-3.78184562 8.31479085 -2.30440013 4.29456388 0 0 Z " fill="#ECBE58" transform="translate(185,165)"/>
<path d="M0 0 C0.33333333 1.33333333 0.66666667 2.66666667 1 4 C1.28875 4.639375 1.5775 5.27875 1.875 5.9375 C1.936875 6.9584375 1.936875 6.9584375 2 8 C-0.4375 10.75 -0.4375 10.75 -3 13 C-2.69240822 11.02006459 -2.3787932 9.04106401 -2.0625 7.0625 C-1.88847656 5.96035156 -1.71445313 4.85820313 -1.53515625 3.72265625 C-1 1 -1 1 0 0 Z " fill="#F2C852" transform="translate(116,64)"/>
<path d="M0 0 C0.99 0.33 1.98 0.66 3 1 C0.03 4.3 -2.94 7.6 -6 11 C-6.33 9.68 -6.66 8.36 -7 7 C-4.6875 4.375 -4.6875 4.375 -2 2 C-1.34 1.34 -0.68 0.68 0 0 Z " fill="#221404" transform="translate(36,40)"/>
<path d="M0 0 C0.33 0 0.66 0 1 0 C1 1.65 1 3.3 1 5 C2.32 5.33 3.64 5.66 5 6 C3.265625 6.65234375 3.265625 6.65234375 1 7 C-1.140625 6.00390625 -1.140625 6.00390625 -3.25 4.5625 C-3.95640625 4.08941406 -4.6628125 3.61632812 -5.390625 3.12890625 C-5.92171875 2.75636719 -6.4528125 2.38382813 -7 2 C-4.3333581 0.66667905 -2.83319697 1.32897967 0 2 C0 1.34 0 0.68 0 0 Z " fill="#E2B85B" transform="translate(70,234)"/>
<path d="M0 0 C2.4932534 0.99730136 3.77467439 1.65074531 5.25 3.9375 C6 6 6 6 6 9 C6.66 9 7.32 9 8 9 C7.67 10.32 7.34 11.64 7 13 C5.82786955 11.21190303 4.66244474 9.41940875 3.5 7.625 C2.8503125 6.62726563 2.200625 5.62953125 1.53125 4.6015625 C0 2 0 2 0 0 Z " fill="#E1BF61" transform="translate(17,186)"/>
<path d="M0 0 C0.33 0 0.66 0 1 0 C0.875 3.3125 0.875 3.3125 0 7 C-3.0625 8.9375 -3.0625 8.9375 -6 10 C-4.63201951 6.0100569 -2.79608023 3.15686477 0 0 Z " fill="#1C0E05" transform="translate(101,63)"/>
<path d="M0 0 C4.75 0.75 4.75 0.75 7 3 C6.67 3.99 6.34 4.98 6 6 C5.01 6 4.02 6 3 6 C3 5.34 3 4.68 3 4 C2.01 3.67 1.02 3.34 0 3 C0 2.01 0 1.02 0 0 Z " fill="#FBC743" transform="translate(88,64)"/>
<path d="M0 0 C4.39453125 0.73242188 4.39453125 0.73242188 8.7890625 1.46484375 C10.37847656 1.72974609 10.37847656 1.72974609 12 2 C14 2.33333333 16 2.66666667 18 3 C18 3.33 18 3.66 18 4 C10.88929109 5.58015754 6.50071131 4.10382323 0 1 C0 0.67 0 0.34 0 0 Z " fill="#2A1304" transform="translate(94,250)"/>
<path d="M0 0 C0.556875 0.70125 1.11375 1.4025 1.6875 2.125 C4.09124732 5.11344261 6.53810432 8.05940238 9 11 C6 11 6 11 4.39453125 9.609375 C3.87246094 8.99578125 3.35039063 8.3821875 2.8125 7.75 C2.28269531 7.14671875 1.75289063 6.5434375 1.20703125 5.921875 C0 4 0 4 0 0 Z " fill="#D7BB61" transform="translate(93,107)"/>
<path d="M0 0 C0.33 0 0.66 0 1 0 C1.07654536 4.51617599 1.10228696 8.59085217 0 13 C-0.99 13 -1.98 13 -3 13 C-3.33 12.01 -3.66 11.02 -4 10 C-3.34 9.67 -2.68 9.34 -2 9 C-1.31270746 6.88153715 -1.31270746 6.88153715 -0.875 4.4375 C-0.70742188 3.61121094 -0.53984375 2.78492187 -0.3671875 1.93359375 C-0.24601563 1.29550781 -0.12484375 0.65742187 0 0 Z " fill="#CEA753" transform="translate(4,103)"/>
<path d="M0 0 C0.99 0 1.98 0 3 0 C3 0.66 3 1.32 3 2 C4.65 2 6.3 2 8 2 C8 3.32 8 4.64 8 6 C5.69 5.34 3.38 4.68 1 4 C0.67 2.68 0.34 1.36 0 0 Z " fill="#E2BB57" transform="translate(130,97)"/>
<path d="M0 0 C4.43458973 1.3937282 6.87378374 3.60582235 10 7 C8.02 7 6.04 7 4 7 C4 5.68 4 4.36 4 3 C2.68 2.67 1.36 2.34 0 2 C0 1.34 0 0.68 0 0 Z " fill="#E2AE5D" transform="translate(220,13)"/>
<path d="M0 0 C0.66 0.33 1.32 0.66 2 1 C0.75368556 4.84280285 -0.36048692 7.07319896 -4 9 C-6.25 8.6875 -6.25 8.6875 -8 8 C-6.50260417 6.79557292 -5.00520833 5.59114583 -3.5078125 4.38671875 C-1.74707893 2.87729455 -1.74707893 2.87729455 0 0 Z " fill="#1A0E05" transform="translate(156,177)"/>
<path d="M0 0 C0.99 0.33 1.98 0.66 3 1 C1.8803014 2.00593243 0.7540588 3.0045849 -0.375 4 C-1.00148437 4.556875 -1.62796875 5.11375 -2.2734375 5.6875 C-4 7 -4 7 -6 7 C-5.67 5.68 -5.34 4.36 -5 3 C-4.01 3 -3.02 3 -2 3 C-2 2.34 -2 1.68 -2 1 C-1.34 0.67 -0.68 0.34 0 0 Z " fill="#E0A857" transform="translate(205,224)"/>
<path d="M0 0 C-1.1858237 3.37503669 -2.27573689 5.64722731 -5 8 C-5.33 5.69 -5.66 3.38 -6 1 C-4 0 -4 0 0 0 Z " fill="#E7AB54" transform="translate(236,191)"/>
<path d="M0 0 C2 2 2 2 2 5 C2.66 5 3.32 5 4 5 C4 5.99 4 6.98 4 8 C2.35 7.67 0.7 7.34 -1 7 C-1.33 6.01 -1.66 5.02 -2 4 C-1.34 4 -0.68 4 0 4 C0 2.68 0 1.36 0 0 Z " fill="#0E0602" transform="translate(93,183)"/>
<path d="M0 0 C0 1.32 0 2.64 0 4 C-0.99 4.495 -0.99 4.495 -2 5 C-2.66 5.99 -3.32 6.98 -4 8 C-4.68707555 5.50935112 -5 3.62113708 -5 1 C-3 0 -3 0 0 0 Z " fill="#F9B24C" transform="translate(253,144)"/>
<path d="M0 0 C3.54971796 0.60852308 6.76693609 1.38346804 10 3 C10.33 3.99 10.66 4.98 11 6 C6.95743617 4.77782954 3.50711041 3.37245704 0 1 C0 0.67 0 0.34 0 0 Z " fill="#E4C167" transform="translate(146,106)"/>
<path d="M0 0 C2 1 2 1 2.8125 2.875 C3 5 3 5 1.6875 6.75 C0 8 0 8 -2 8 C-2.20086443 4.28400809 -2.1519437 3.22791555 0 0 Z " fill="#F5C443" transform="translate(98,57)"/>
<path d="M0 0 C0.66 0.33 1.32 0.66 2 1 C-0.97 4.96 -0.97 4.96 -4 9 C-5 6 -5 6 -4.25 3.9375 C-3 2 -3 2 0 0 Z " fill="#201307" transform="translate(181,170)"/>
<path d="M0 0 C1.8258428 1.8258428 2.82300078 3.2754995 4.0625 5.5 C4.40410156 6.1084375 4.74570313 6.716875 5.09765625 7.34375 C5.7549272 8.5501694 6.38559738 9.77119477 7 11 C5.25 10.9375 5.25 10.9375 3 10 C1.23264713 7.74590076 0.2300899 5.64241534 -1 3 C-0.67 2.01 -0.34 1.02 0 0 Z " fill="#251609" transform="translate(76,164)"/>
<path d="M0 0 C0.33 0 0.66 0 1 0 C1.33 2.64 1.66 5.28 2 8 C1.34 8 0.68 8 0 8 C0 8.66 0 9.32 0 10 C-0.99 10.33 -1.98 10.66 -3 11 C-2.01 7.37 -1.02 3.74 0 0 Z " fill="#3A220B" transform="translate(252,154)"/>
<path d="M0 0 C0.103125 0.639375 0.20625 1.27875 0.3125 1.9375 C0.539375 2.618125 0.76625 3.29875 1 4 C1.99 4.33 2.98 4.66 4 5 C4 5.99 4 6.98 4 8 C2.68 8.33 1.36 8.66 0 9 C-1.15941038 5.52176885 -0.70820884 3.54104422 0 0 Z " fill="#DBAD50" transform="translate(187,156)"/>
<path d="M0 0 C4.15711948 2.84434491 6.04057239 4.98965584 7 10 C6.01 11.485 6.01 11.485 5 13 C4.80664062 12.39671875 4.61328125 11.7934375 4.4140625 11.171875 C4.15367187 10.37265625 3.89328125 9.5734375 3.625 8.75 C3.36976563 7.96109375 3.11453125 7.1721875 2.8515625 6.359375 C2.04826333 4.13372042 1.10288338 2.09068328 0 0 Z " fill="#E2C167" transform="translate(152,148)"/>
<path d="M0 0 C0.66 0 1.32 0 2 0 C2 0.66 2 1.32 2 2 C2.86625 2.37125 2.86625 2.37125 3.75 2.75 C6.3002997 4.16683317 8.01785701 5.87627537 10 8 C9.67 8.66 9.34 9.32 9 10 C7.70756532 8.8758824 6.41607925 7.75067408 5.125 6.625 C4.40570313 5.99851562 3.68640625 5.37203125 2.9453125 4.7265625 C1.5923402 3.52573166 0.2791655 2.2791655 -1 1 C-0.67 0.67 -0.34 0.34 0 0 Z " fill="#E1C06C" transform="translate(170,118)"/>
<path d="M0 0 C0.66 0 1.32 0 2 0 C0.55049545 3.7910119 -1.15172566 7.3874638 -3 11 C-3.93423645 7.98968256 -4.04449911 7.13349732 -3 4 C-2.34 4 -1.68 4 -1 4 C-0.67 2.68 -0.34 1.36 0 0 Z " fill="#281A05" transform="translate(18,64)"/>
<path d="M0 0 C0.66 0.33 1.32 0.66 2 1 C1.02471263 2.33617352 0.04466681 3.6688751 -0.9375 5 C-1.48277344 5.7425 -2.02804688 6.485 -2.58984375 7.25 C-3.28787109 8.11625 -3.28787109 8.11625 -4 9 C-4.33 9 -4.66 9 -5 9 C-5.3125 6.1875 -5.3125 6.1875 -5 3 C-2.625 1.0625 -2.625 1.0625 0 0 Z " fill="#DFC063" transform="translate(100,62)"/>
<path d="M0 0 C0.66 0.33 1.32 0.66 2 1 C1.34 2.65 0.68 4.3 0 6 C-2.31 6 -4.62 6 -7 6 C-6.34 5.67 -5.68 5.34 -5 5 C-5 4.34 -5 3.68 -5 3 C-2.625 1.3125 -2.625 1.3125 0 0 Z " fill="#070409" transform="translate(52,22)"/>
<path d="M0 0 C1.875 0.25 1.875 0.25 4 1 C5.87380446 3.49840595 6.05001932 4.63319166 5.625 7.75 C5.41875 8.4925 5.2125 9.235 5 10 C3 7 3 7 3 3 C2.34 3 1.68 3 1 3 C0.67 2.01 0.34 1.02 0 0 Z " fill="#F4C143" transform="translate(151,151)"/>
<path d="M0 0 C3.24299151 2.38957269 5.50902342 4.2047869 7 8 C5.25 7.875 5.25 7.875 3 7 C0.75 3.9375 0.75 3.9375 -1 1 C-0.67 0.67 -0.34 0.34 0 0 Z " fill="#231A09" transform="translate(175,124)"/>
<path d="M0 0 C1.32 1.32 2.64 2.64 4 4 C2.68 5.32 1.36 6.64 0 8 C-1.125 2.25 -1.125 2.25 0 0 Z " fill="#F7CB45" transform="translate(97,116)"/>
<path d="M0 0 C4.455 1.98 4.455 1.98 9 4 C8.67 4.99 8.34 5.98 8 7 C7.01 6.67 6.02 6.34 5 6 C4.67 5.34 4.34 4.68 4 4 C1.47266765 3.34444881 1.47266765 3.34444881 -1 3 C-0.67 2.01 -0.34 1.02 0 0 Z " fill="#1A0E03" transform="translate(125,97)"/>
<path d="M0 0 C-2.31 1.65 -4.62 3.3 -7 5 C-7 3.35 -7 1.7 -7 0 C-4 -1 -4 -1 0 0 Z " fill="#271A07" transform="translate(48,33)"/>
<path d="M0 0 C0.66 0.33 1.32 0.66 2 1 C2 1.66 2 2.32 2 3 C1.01 3 0.02 3 -1 3 C-1.66 4.32 -2.32 5.64 -3 7 C-3.99 7 -4.98 7 -6 7 C-4.77065985 3.31197956 -3.06140622 2.27643027 0 0 Z " fill="#D2AE59" transform="translate(56,25)"/>
<path d="M0 0 C1.32 0.33 2.64 0.66 4 1 C2.37660195 2.70884005 0.70680947 4.37446717 -1 6 C-1.66 6 -2.32 6 -3 6 C-2.67 4.68 -2.34 3.36 -2 2 C-1.34 2 -0.68 2 0 2 C0 1.34 0 0.68 0 0 Z " fill="#DCA455" transform="translate(211,218)"/>
<path d="M0 0 C3.7952131 1.49097658 5.61042731 3.75700849 8 7 C6.35 6.67 4.7 6.34 3 6 C3 5.01 3 4.02 3 3 C2.01 2.67 1.02 2.34 0 2 C0 1.34 0 0.68 0 0 Z " fill="#190C01" transform="translate(36,215)"/>
<path d="M0 0 C0.99 0.33 1.98 0.66 3 1 C3 1.99 3 2.98 3 4 C3.66 4 4.32 4 5 4 C5.33 6.31 5.66 8.62 6 11 C5.34 10.01 4.68 9.02 4 8 C3.29875 6.989375 2.5975 5.97875 1.875 4.9375 C0 2 0 2 0 0 Z " fill="#E0BB66" transform="translate(180,128)"/>
<path d="M0 0 C0.33 0 0.66 0 1 0 C0.48041715 4.37934119 -0.05675742 8.68803391 -1 13 C-1.33 13 -1.66 13 -2 13 C-2.125 7.25 -2.125 7.25 -1 5 C-1.66 4.67 -2.32 4.34 -3 4 C-2.02727325 2.64664105 -1.0260734 1.31337396 0 0 Z " fill="#211305" transform="translate(175,64)"/>
<path d="M0 0 C1.32 0.33 2.64 0.66 4 1 C3.67 2.65 3.34 4.3 3 6 C2.01 5.67 1.02 5.34 0 5 C0 3.35 0 1.7 0 0 Z " fill="#06020B" transform="translate(17,195)"/>
<path d="M0 0 C0.99 0.33 1.98 0.66 3 1 C-0.20336822 3.83374881 -2.78087253 4.5205537 -7 5 C-2.25 1.125 -2.25 1.125 0 0 Z " fill="#DBB65E" transform="translate(168,185)"/>
<path d="M0 0 C-0.33 0.99 -0.66 1.98 -1 3 C-2.9375 3.5625 -2.9375 3.5625 -5 4 C-5.66 4.66 -6.32 5.32 -7 6 C-7 3 -7 3 -6 1 C-3 0 -3 0 0 0 Z " fill="#F8CB46" transform="translate(76,187)"/>
<path d="M0 0 C1.32 0.33 2.64 0.66 4 1 C3.25 2.9375 3.25 2.9375 2 5 C-0.125 5.75 -0.125 5.75 -2 6 C-1.34 4.02 -0.68 2.04 0 0 Z " fill="#F7C646" transform="translate(114,128)"/>
<path d="M0 0 C0.45375 0.495 0.9075 0.99 1.375 1.5 C2.87635519 3.22609337 2.87635519 3.22609337 5 3 C5.33 3.99 5.66 4.98 6 6 C3.69 5.34 1.38 4.68 -1 4 C-1 1 -1 1 0 0 Z " fill="#201507" transform="translate(130,130)"/>
<path d="M0 0 C0 0.66 0 1.32 0 2 C-0.99 2 -1.98 2 -3 2 C-3 3.65 -3 5.3 -3 7 C-4.32 6.34 -5.64 5.68 -7 5 C-6.34 5 -5.68 5 -5 5 C-5.33 4.01 -5.66 3.02 -6 2 C-2.25 0 -2.25 0 0 0 Z " fill="#DEB853" transform="translate(127,57)"/>
<path d="M0 0 C0.99 0 1.98 0 3 0 C3.66 2.31 4.32 4.62 5 7 C4.01 7.495 4.01 7.495 3 8 C0 2.25 0 2.25 0 0 Z " fill="#2B1104" transform="translate(244,35)"/>
<path d="M0 0 C0 0.66 0 1.32 0 2 C-3.21451269 3.60725635 -6.43612536 3.05748185 -10 3 C-4 0 -4 0 0 0 Z " fill="#311A09" transform="translate(166,249)"/>
<path d="M0 0 C3.3 0.66 6.6 1.32 10 2 C10 2.33 10 2.66 10 3 C6.04 3 2.08 3 -2 3 C-1.34 2.67 -0.68 2.34 0 2 C0 1.34 0 0.68 0 0 Z " fill="#DEBC5C" transform="translate(99,193)"/>
<path d="M0 0 C2.625 0.375 2.625 0.375 5 1 C3.68 2.32 2.36 3.64 1 5 C0.01 4.01 -0.98 3.02 -2 2 C-1.34 1.34 -0.68 0.68 0 0 Z " fill="#DBB151" transform="translate(158,190)"/>
<path d="M0 0 C0.66 0.66 1.32 1.32 2 2 C0.68 4.31 -0.64 6.62 -2 9 C-2.33 9 -2.66 9 -3 9 C-3 7.02 -3 5.04 -3 3 C-2.01 3 -1.02 3 0 3 C0 2.01 0 1.02 0 0 Z " fill="#E0AC57" transform="translate(239,182)"/>
<path d="M0 0 C2.79872437 2.52788007 4.45773019 4.20411134 5 8 C3.68 7.67 2.36 7.34 1 7 C0.67 4.69 0.34 2.38 0 0 Z " fill="#D5A254" transform="translate(239,29)"/>
<path d="M0 0 C2.97 0.495 2.97 0.495 6 1 C6.33 2.65 6.66 4.3 7 6 C5.68 5.34 4.36 4.68 3 4 C3 3.34 3 2.68 3 2 C2.01 1.67 1.02 1.34 0 1 C0 0.67 0 0.34 0 0 Z " fill="#36200C" transform="translate(230,19)"/>
<path d="M0 0 C2.31 0 4.62 0 7 0 C7.33 1.32 7.66 2.64 8 4 C2.25 2.25 2.25 2.25 0 0 Z " fill="#3D260C" transform="translate(208,6)"/>
<path d="M0 0 C-6.75 4 -6.75 4 -9 4 C-9 3.34 -9 2.68 -9 2 C-8.34 2 -7.68 2 -7 2 C-7 1.34 -7 0.68 -7 0 C-3.98968256 -0.93423645 -3.13349732 -1.04449911 0 0 Z " fill="#DEA85A" transform="translate(192,237)"/>
<path d="M0 0 C0.99 0.33 1.98 0.66 3 1 C1.35 2.98 -0.3 4.96 -2 7 C-2.66 6.67 -3.32 6.34 -4 6 C-4 5.34 -4 4.68 -4 4 C-3.01 4 -2.02 4 -1 4 C-0.67 2.68 -0.34 1.36 0 0 Z " fill="#DFA858" transform="translate(221,208)"/>
<path d="M0 0 C0.99 0.66 1.98 1.32 3 2 C-1.455 3.485 -1.455 3.485 -6 5 C-5 2 -5 2 -2.625 0.6875 C-1.75875 0.460625 -0.8925 0.23375 0 0 Z " fill="#1C0E05" transform="translate(160,187)"/>
<path d="M0 0 C2.475 0.99 2.475 0.99 5 2 C3.35 3.65 1.7 5.3 0 7 C0 4.69 0 2.38 0 0 Z " fill="#3B290B" transform="translate(65,184)"/>
<path d="M0 0 C1.32 0.33 2.64 0.66 4 1 C4 1.66 4 2.32 4 3 C2.02 3.99 0.04 4.98 -2 6 C-1.49396008 3.83125748 -1.00016187 2.00032373 0 0 Z " fill="#181106" transform="translate(166,182)"/>
<path d="M0 0 C3.40424844 1.13474948 4.21653709 1.96811304 6 5 C5.67 5.99 5.34 6.98 5 8 C0 2.25 0 2.25 0 0 Z " fill="#DBBE6C" transform="translate(78,167)"/>
<path d="M0 0 C0.28875 0.639375 0.5775 1.27875 0.875 1.9375 C1.82823451 4.15206079 1.82823451 4.15206079 4 5 C3.02149805 6.02104551 2.02019573 7.0206121 1 8 C0.67 8 0.34 8 0 8 C0 5.36 0 2.72 0 0 Z " fill="#EAB655" transform="translate(0,114)"/>
</svg>
